Coordinates
version=1
nRows=22
nColumns=24
inDegrees=yes

Units are S.I. units (second, meters, Newtons, ...)
Angles are in degrees.

endheader
time	pelvis_tilt	pelvis_list	pelvis_rotation	pelvis_tx	pelvis_ty	pelvis_tz	hip_flexion_r	hip_adduction_r	hip_rotation_r	knee_angle_r	ankle_angle_r	subtalar_angle_r	mtp_angle_r	hip_flexion_l	hip_adduction_l	hip_rotation_l	knee_angle_l	ankle_angle_l	subtalar_angle_l	mtp_angle_l	lumbar_extension	lumbar_bending	lumbar_rotation
      1.06216667	     -0.38945085	      2.41628303	     -3.97616292	      0.02012302	      1.04458435	      0.34084705	    -17.96576865	     -0.66028473	     -1.21244194	     -7.70339561	     18.42245336	      3.44398663	      5.39047188	     25.60826576	      0.62810590	     -4.98181714	     -1.18564063	      8.90905086	      4.04367255	      5.08023359	    -15.33036213	      0.91575043	      2.70434784
      1.06633333	     -0.47346039	      2.39691934	     -4.05868627	      0.02629440	      1.04339946	      0.34060914	    -18.07229747	     -0.73055145	     -1.35533303	     -8.03977752	     18.47663378	      3.83619573	      5.60545036	     25.73213310	      0.68450549	     -4.95569039	     -1.62623427	      8.86254595	      4.02082071	      5.08422143	    -15.17013957	      0.86292058	      2.74257289
      1.07050000	     -0.49160606	      2.38540741	     -4.14134147	      0.03245321	      1.04236109	      0.34042863	    -18.28857080	     -0.79917757	     -1.31855566	     -8.28888801	     18.37419992	      3.91004148	      5.63636614	     25.77557461	      0.75043860	     -4.87744344	     -2.08395492	      8.77924269	      3.97156063	      5.08635940	    -15.12746571	      0.77703238	      2.74046695
      1.07466667	     -0.56090649	      2.38014404	     -4.20373289	      0.03868923	      1.04125584	      0.34016712	    -18.40500859	     -0.88329098	     -1.49791579	     -8.64213687	     18.34166258	      4.31830035	      5.85830129	     25.87706681	      0.82779145	     -4.76174931	     -2.58350794	      8.67820254	      3.95228773	      5.12054763	    -14.98335777	      0.68482962	      2.76190213
      1.07883333	     -0.57415257	      2.38370050	     -4.28357047	      0.04490235	      1.04029920	      0.33997572	    -18.60911403	     -0.97160014	     -1.47510070	     -8.92756744	     18.22030808	      4.38664844	      5.90274144	     25.91754825	      0.90658667	     -4.67278404	     -3.11046701	      8.49509133	      3.91342594	      5.12728623	    -14.94317177	      0.59378745	      2.75660180
      1.08300000	     -0.65585689	      2.39849561	     -4.33736948	      0.05121137	      1.03925391	      0.33970969	    -18.69776357	     -1.07669320	     -1.66702374	     -9.31145689	     18.13081756	      4.79820153	      6.18670991	     26.02236624	      1.00345517	     -4.49466619	     -3.64400696	      8.26911969	      3.86127413	      5.19282648	    -14.77468658	      0.46806562	      2.75072811
      1.08716667	     -0.62856286	      2.42990258	     -4.40101045	      0.05746699	      1.03843376	      0.33947141	    -18.91097552	     -1.20536087	     -1.78682114	     -9.65906907	     17.91720842	      4.97122260	      9.91109017	     26.00105138	      1.12363590	     -4.28448533	     -4.17177917	      7.93605521	      3.62899987	      6.19992124	    -14.76987943	      0.32884695	      2.71554779
      1.09133333	     -0.67601064	      2.44376782	     -4.45523398	      0.06378096	      1.03755200	      0.33922952	    -19.04105074	     -1.30361197	     -1.84565337	    -10.02326709	     17.69043542	      5.08959248	      9.93298149	     26.09043203	      1.20993866	     -4.16724575	     -4.78632697	      7.62268517	      3.65413377	      6.20254461	    -14.64860804	      0.21812598	      2.71675724
      1.09550000	     -0.75715967	      2.48041585	     -4.49902426	      0.07012129	      1.03664311	      0.33894035	    -19.09345293	     -1.43461091	     -2.02875962	    -10.47689767	     17.56713344	      5.47993680	     10.07717022	     26.22221781	      1.32175126	     -3.99078376	     -5.42845123	      7.28118387	      3.58816266	      6.24256048	    -14.50290393	      0.07380870	      2.68477264
      1.09966667	     -0.81164032	      2.52699705	     -4.53755549	      0.07647829	      1.03584452	      0.33865146	    -19.17344443	     -1.57494326	     -2.19075794	    -10.92690630	     17.34884319	      5.77134566	     10.30733817	     26.32088393	      1.44516534	     -3.79229507	     -6.06840076	      6.86514130	      3.45570448	      6.30798746	    -14.38199274	     -0.08820777	      2.64811457
      1.10383333	     -0.85875192	      2.57847608	     -4.56633479	      0.08283729	      1.03510747	      0.33834245	    -19.24396823	     -1.72136978	     -2.36812911	    -11.40921699	     17.09741840	      6.06186965	     10.66810996	     26.42314440	      1.57347090	     -3.58471121	     -6.73968134	      6.42237252	      3.29955192	      6.40625326	    -14.27246579	     -0.25243915	      2.59404459
      1.10800000	     -0.82444096	      2.65991868	     -4.58521734	      0.08919602	      1.03457413	      0.33802777	    -19.39702343	     -1.90479829	     -2.58724527	    -11.88658699	     16.74033534	      6.33785385	     12.61998831	     26.42849868	      1.74332994	     -3.33648678	     -7.39341792	      5.93062084	      3.02945731	      6.91134587	    -14.27695979	     -0.48227376	      2.52805618
      1.11216667	     -0.94226181	      2.69381592	     -4.60740220	      0.09559192	      1.03386014	      0.33771062	    -19.36538022	     -2.02240640	     -2.66427573	    -12.41220168	     16.38763267	      6.46224273	     12.76332011	     26.65959898	      1.82822547	     -3.24455425	     -8.19832472	      5.49792287	      3.02944270	      6.93479647	    -14.06561098	     -0.61608499	      2.50861013
      1.11633333	     -1.00536375	      2.75869341	     -4.61571789	      0.10198196	      1.03328949	      0.33734010	    -19.35699875	     -2.18794845	     -2.87626439	    -13.00523958	     16.04133342	      6.77860819	     13.03662679	     26.82598521	      1.95787054	     -3.09151757	     -8.99180965	      5.04545295	      2.88954047	      6.97431286	    -13.93816284	     -0.79985870	      2.44194977
      1.12050000	     -1.01712911	      2.84147209	     -4.63436519	      0.10836604	      1.03288675	      0.33700886	    -19.39290549	     -2.37693790	     -3.03633248	    -13.59834964	     15.53862813	      6.94185984	     16.33202609	     26.92293064	      2.10406788	     -2.91084729	     -9.75752220	      4.52532095	      2.61376214	      7.41669750	    -13.88024560	     -1.02414389	      2.37270767
      1.12466667	     -1.08172321	      2.89662999	     -4.62000931	      0.11476263	      1.03243373	      0.33658872	    -19.34341770	     -2.53124354	     -3.24641922	    -14.26242167	     15.10567170	      7.22188563	     16.40931404	     27.13754736	      2.21513606	     -2.82347872	    -10.67049621	      4.18029843	      2.59118729	      7.41441583	    -13.75677778	     -1.19337856	      2.32108123
      1.12883333	     -1.11621759	      2.96801380	     -4.61400705	      0.12116681	      1.03211329	      0.33619583	    -19.30683003	     -2.70875088	     -3.42988068	    -14.95022846	     14.58263984	      7.47512353	     16.51559765	     27.30436034	      2.33863773	     -2.72396504	    -11.55603523	      3.80224419	      2.50848223	      7.40832103	    -13.67537730	     -1.40342432	      2.26374255
      1.13300000	     -1.14618358	      3.04616678	     -4.60038884	      0.12755055	      1.03185159	      0.33573230	    -19.22907480	     -2.90754433	     -3.68066051	    -15.72160790	     14.06116368	      7.76356000	     19.21633487	     27.46892867	      2.48078090	     -2.56316717	    -12.45701223	      3.45600994	      2.22164200	      7.33642408	    -13.59734364	     -1.59748753	      2.16970258
      1.13716667	     -1.19780327	      3.11246875	     -4.58837788	      0.13395391	      1.03161826	      0.33529092	    -19.10515023	     -3.09166389	     -3.88120136	    -16.53787869	     13.53197719	      8.04096399	     19.29274767	     27.68097545	      2.58474612	     -2.55312943	    -13.41812815	      3.15824725	      2.23338278	      7.32569428	    -13.49398360	     -1.78823233	      2.11609184
      1.14133333	     -1.24035943	      3.18276679	     -4.57237252	      0.14035518	      1.03146329	      0.33482589	    -18.95840658	     -3.28782011	     -4.09726271	    -17.40873558	     12.96372829	      8.34658432	     19.44477700	     27.87331221	      2.69778481	     -2.50550315	    -14.36877119	      2.90504620	      2.16435102	      7.30536425	    -13.40419853	     -1.98295510	      2.05262048
      1.14550000	     -1.27005071	      3.25052934	     -4.55242295	      0.14674738	      1.03138340	      0.33433645	    -18.79604759	     -3.48877989	     -4.31768711	    -18.32824151	     12.36148607	      8.66110712	     19.67538107	     28.04645791	      2.81003026	     -2.45627526	    -15.31675130	      2.68854592	      2.09837890	      7.27383299	    -13.33323466	     -2.17227684	      1.99012187
      1.14966667	     -1.29558162	      3.31572940	     -4.52702654	      0.15312952	      1.03136329	      0.33381894	    -18.60421081	     -3.69370231	     -4.54193490	    -19.30618399	     11.72749217	      8.98544484	     19.99606394	     28.20617737	      2.92079839	     -2.41683912	    -16.25187706	      2.51011781	      2.05734127	      7.22759769	    -13.27305436	     -2.36002359	      1.92714094
